<?xml version="1.0" encoding="UTF-8" standalone="no"?>
<!DOCTYPE svg PUBLIC "-//W3C//DTD SVG 1.1//EN"
 "http://www.w3.org/Graphics/SVG/1.1/DTD/svg11.dtd">
<!-- Generated by graphviz version 2.42.2 ()
 -->
<!-- Pages: 1 -->
<svg width="765pt" height="243pt"
 viewBox="0.00 0.00 765.36 243.00" xmlns="http://www.w3.org/2000/svg" xmlns:xlink="http://www.w3.org/1999/xlink">
<g id="graph0" class="graph" transform="scale(1 1) rotate(0) translate(4 239)">
<polygon fill="white" stroke="transparent" points="-4,4 -4,-239 761.36,-239 761.36,4 -4,4"/>
<!-- START -->
<g id="node1" class="node">
<title>START</title>
<ellipse fill="yellow" stroke="black" cx="41.6" cy="-114" rx="41.69" ry="18"/>
<text text-anchor="middle" x="41.6" y="-110.3" font-family="Times,serif" font-size="14.00">START</text>
</g>
<!-- Subset_Selection -->
<g id="node2" class="node">
<title>Subset_Selection</title>
<ellipse fill="yellow" stroke="black" cx="257.53" cy="-114" rx="90.5" ry="18"/>
<text text-anchor="middle" x="257.53" y="-110.3" font-family="Times,serif" font-size="14.00">Subset_Selection</text>
</g>
<!-- START&#45;&gt;Subset_Selection -->
<g id="edge1" class="edge">
<title>START&#45;&gt;Subset_Selection</title>
<path fill="none" stroke="black" d="M83.34,-114C104.21,-114 130.63,-114 156.5,-114"/>
<polygon fill="black" stroke="black" points="156.76,-117.5 166.76,-114 156.76,-110.5 156.76,-117.5"/>
<text text-anchor="middle" x="125.19" y="-117.8" font-family="Times,serif" font-size="14.00">subset</text>
</g>
<!-- Counted_Data -->
<g id="node3" class="node">
<title>Counted_Data</title>
<ellipse fill="yellow" stroke="black" cx="650.12" cy="-184" rx="76.09" ry="18"/>
<text text-anchor="middle" x="650.12" y="-180.3" font-family="Times,serif" font-size="14.00">Counted_Data</text>
</g>
<!-- Subset_Selection&#45;&gt;Counted_Data -->
<g id="edge2" class="edge">
<title>Subset_Selection&#45;&gt;Counted_Data</title>
<path fill="none" stroke="black" d="M276.84,-131.62C296.85,-149.55 330.77,-176.19 365.88,-187 436.15,-208.63 520.96,-203.97 579.35,-196.35"/>
<polygon fill="black" stroke="black" points="580.14,-199.77 589.57,-194.95 579.19,-192.84 580.14,-199.77"/>
<text text-anchor="middle" x="445.38" y="-205.8" font-family="Times,serif" font-size="14.00">fw&#45;count</text>
</g>
<!-- User_function_result -->
<g id="node4" class="node">
<title>User_function_result</title>
<ellipse fill="red" stroke="black" cx="650.12" cy="-119" rx="107.48" ry="18"/>
<text text-anchor="middle" x="650.12" y="-115.3" font-family="Times,serif" font-size="14.00">User_function_result</text>
</g>
<!-- Subset_Selection&#45;&gt;User_function_result -->
<g id="edge3" class="edge">
<title>Subset_Selection&#45;&gt;User_function_result</title>
<path fill="none" stroke="black" d="M348.14,-115.15C402.97,-115.85 473.69,-116.75 532.8,-117.51"/>
<polygon fill="black" stroke="black" points="532.9,-121.01 542.94,-117.64 532.99,-114.01 532.9,-121.01"/>
<text text-anchor="middle" x="445.38" y="-120.8" font-family="Times,serif" font-size="14.00">fw&#45;Run_user_Function</text>
</g>
<!-- Model_Training -->
<g id="node5" class="node">
<title>Model_Training</title>
<ellipse fill="yellow" stroke="black" cx="650.12" cy="-38" rx="83.39" ry="18"/>
<text text-anchor="middle" x="650.12" y="-34.3" font-family="Times,serif" font-size="14.00">Model_Training</text>
</g>
<!-- Subset_Selection&#45;&gt;Model_Training -->
<g id="edge4" class="edge">
<title>Subset_Selection&#45;&gt;Model_Training</title>
<path fill="none" stroke="black" d="M294.06,-97.47C314.62,-88.58 341.23,-78.19 365.88,-72 429.3,-56.06 502.64,-47.52 558.8,-42.98"/>
<polygon fill="black" stroke="black" points="559.38,-46.45 569.08,-42.18 558.84,-39.47 559.38,-46.45"/>
<text text-anchor="middle" x="445.38" y="-75.8" font-family="Times,serif" font-size="14.00">learn</text>
</g>
<!-- Counted_Data&#45;&gt;Subset_Selection -->
<g id="edge5" class="edge">
<title>Counted_Data&#45;&gt;Subset_Selection</title>
<path fill="none" stroke="black" d="M586.57,-174.03C529.1,-164.72 441.62,-150.17 365.88,-136 354.34,-133.84 342.12,-131.44 330.23,-129.05"/>
<polygon fill="black" stroke="black" points="330.83,-125.6 320.33,-127.04 329.43,-132.46 330.83,-125.6"/>
<text text-anchor="middle" x="445.38" y="-166.8" font-family="Times,serif" font-size="14.00">Go&#45;To</text>
</g>
<!-- Counted_Data&#45;&gt;Counted_Data -->
<g id="edge6" class="edge">
<title>Counted_Data&#45;&gt;Counted_Data</title>
<path fill="none" stroke="black" d="M614.57,-200.29C605.99,-210.39 617.84,-220 650.12,-220 670.79,-220 683.09,-216.05 687,-210.56"/>
<polygon fill="black" stroke="black" points="690.43,-209.76 685.67,-200.29 683.48,-210.66 690.43,-209.76"/>
<text text-anchor="middle" x="650.12" y="-223.8" font-family="Times,serif" font-size="14.00">Read</text>
</g>
<!-- User_function_result&#45;&gt;Subset_Selection -->
<g id="edge7" class="edge">
<title>User_function_result&#45;&gt;Subset_Selection</title>
<path fill="none" stroke="blue" d="M584.63,-104.74C565.49,-101.14 544.43,-97.79 524.88,-96 454.51,-89.54 436.3,-90.13 365.88,-96 355.14,-96.89 343.85,-98.28 332.8,-99.9"/>
<polygon fill="blue" stroke="blue" points="332.09,-96.47 322.74,-101.44 333.16,-103.39 332.09,-96.47"/>
<text text-anchor="middle" x="445.38" y="-99.8" font-family="Times,serif" font-size="14.00" fill="blue">Go&#45;To</text>
</g>
<!-- Model_Training&#45;&gt;Subset_Selection -->
<g id="edge8" class="edge">
<title>Model_Training&#45;&gt;Subset_Selection</title>
<path fill="none" stroke="black" d="M595.41,-24.37C537.08,-12.17 442.06,0 365.88,-27 331.44,-39.2 299.99,-67.67 280.16,-88.74"/>
<polygon fill="black" stroke="black" points="277.57,-86.39 273.39,-96.12 282.73,-91.12 277.57,-86.39"/>
<text text-anchor="middle" x="445.38" y="-30.8" font-family="Times,serif" font-size="14.00">Go&#45;To</text>
</g>
</g>
</svg>
